Sex and the City 2 (2010) DVDRip XviD-MAX

Format                           : AVI
Format/Info                      : Audio Video Interleave
Format profile                   : OpenDML
File size                        : 1.37 GiB
Duration                         : 2h 20mn
Overall bit rate                 : 1 390 Kbps
Writing application              : VirtualDubMod 1.5.10.2 (build 2542/release)
Writing library                  : VirtualDubMod build 2542/release
Original source form             : MAX TORRENTZ
Copyright                        : SIGISMUNT

Video
ID                               : 0
Format                           : MPEG-4 Visual
Format profile                   : E-mail
Format settings, BVOP            : Yes
Format settings, QPel            : No
Format settings, GMC             : No warppoints
Format settings, Matrix          : Default (H.263)
Muxing mode                      : Packed bitstream
Codec ID                         : XVID
Codec ID/Hint                    : XviD
Duration                         : 2h 20mn
Bit rate                         : 1 193 Kbps
Width                            : 720 pixels
Height                           : 288 pixels
Display aspect ratio             : 2.500
Frame rate                       : 25.000 fps
Resolution                       : 24 bits
Colorimetry                      : 4:2:0
Scan type                        : Progressive
Bits/(Pixel*Frame)               : 0.230
Stream size                      : 1.17 GiB (86%)
Writing library                  : XviD 1.2.1 (UTC 2008-12-04)

Audio
ID                               : 1
Format                           : AC-3
Format/Info                      : Audio Coding 3
Codec ID                         : 2000
Duration                         : 2h 20mn
Bit rate mode                    : Constant
Bit rate                         : 192 Kbps
Channel(s)                       : 2 channels
Channel positions                : L R
Sampling rate                    : 48.0 KHz
Stream size                      : 193 MiB (14%)
Alignment                        : Aligned on interleaves
Interleave, duration             : 64 ms (1.60 video frames)
Interleave, preload duration     : 192 ms

Source: KiNGDOM (perfect resynced-check included sample)
 
http://www.imdb.com/title/tt1261945/

Screens:
 
http://www.postimg.com/image/19000/18595.jpg
 
http://www.postimg.com/image/19000/18596.jpg
 
http://www.postimg.com/image/19000/18597.jpg
 
http://www.postimg.com/image/19000/18598.jpg

ScreenCaps:
 
http://www.postimg.com/image/19000/18599.jpg

Sex and the City 2 (2010) DVDRip XviD-MAX Torrent Free Download
 
http://thepiratebay.org/user/extremezone/0/7

How To Get Your Maxspeed (uTorrent)

Torrent Client - Preferences - Bandwidth - Number of connections - Set aprox. 500 for each 
Torrent Client - Preferences - BiTorrent - Protocol Encryption - Forced
Bandwidth Allocation - High (Set download/upload limit - Unlimited)
Stop Other Active Torrents - Start downloading and wait for connections
Enjoy and Seed for at least 1:1 ratio. Don't forget to say thanks/leave reviews.
Also please spread the link where you found this torrent to your friends.
Don't trust IMDb robot or bad ratings,always watch some trailers first.
Ignore stupid comments and fake/mislabeled/CAM/TS/RAR uploads.
If you need translation subs visit some subtitles sites.
Recommended movie player VLC PLAYER.